<?xml version="1.0" encoding="UTF-8" standalone="no"?>
<!-- Created with Inkscape (http://www.inkscape.org/) -->
<svg
   xmlns:dc="http://purl.org/dc/elements/1.1/"
   xmlns:cc="http://creativecommons.org/ns#"
   xmlns:rdf="http://www.w3.org/1999/02/22-rdf-syntax-ns#"
   xmlns:svg="http://www.w3.org/2000/svg"
   xmlns="http://www.w3.org/2000/svg"
   xmlns:sodipodi="http://sodipodi.sourceforge.net/DTD/sodipodi-0.dtd"
   xmlns:inkscape="http://www.inkscape.org/namespaces/inkscape"
   version="1.0"
   width="199.99998"
   height="146.87796"
   id="svg1894"
   sodipodi:version="0.32"
   inkscape:version="0.46"
   sodipodi:docname="Do Mayor armadura.svg"
   inkscape:output_extension="org.inkscape.output.svg.inkscape">
  <metadata
     id="metadata13">
    <rdf:RDF>
      <cc:Work
         rdf:about="">
        <dc:format>image/svg+xml</dc:format>
        <dc:type
           rdf:resource="http://purl.org/dc/dcmitype/StillImage" />
      </cc:Work>
    </rdf:RDF>
  </metadata>
  <sodipodi:namedview
     inkscape:window-height="480"
     inkscape:window-width="640"
     inkscape:pageshadow="2"
     inkscape:pageopacity="0.0"
     guidetolerance="10.0"
     gridtolerance="10.0"
     objecttolerance="10.0"
     borderopacity="1.0"
     bordercolor="#666666"
     pagecolor="#ffffff"
     id="base"
     showgrid="false" />
  <defs
     id="defs1896" />
  <g
     transform="matrix(1.0040233,0,0,1.0040233,-241.74172,-418.06036)"
     id="g2397">
    <g
       transform="matrix(0.2505679,0,0,0.1800985,240.14513,415.48387)"
       id="g1934">
      <path
         d="M 4.2160405,395.78396 L 795.78395,395.78396"
         id="path11"
         style="fill:none;fill-rule:evenodd;stroke:#131516;stroke-width:4.03443909" />
      <path
         d="M 4.2160405,635.78396 L 795.78395,635.78396"
         id="path13"
         style="fill:none;fill-rule:evenodd;stroke:#131516;stroke-width:4.03443909" />
      <path
         d="M 4.2160405,515.78396 L 795.78395,515.78396"
         id="path15"
         style="fill:none;fill-rule:evenodd;stroke:#131516;stroke-width:4.03443909" />
      <path
         d="M 4.2160405,275.78396 L 795.78395,275.78396"
         id="path17"
         style="fill:none;fill-rule:evenodd;stroke:#131516;stroke-width:4.03443909" />
      <path
         d="M 4.2160405,155.78396 L 795.78395,155.78396"
         id="path19"
         style="fill:none;fill-rule:evenodd;stroke:#131516;stroke-width:4.03443909" />
    </g>
    <path
       d="M 276.2779,497.09043 C 274.03279,497.5509 271.95216,498.78288 269.96627,500.74541 C 267.97792,502.74396 266.91351,505.02348 266.73952,507.54544 C 266.63015,509.13062 267.04754,510.96939 267.96307,512.95111 C 268.87609,514.96891 270.3681,516.48361 272.36436,517.52635 C 273.04054,517.71779 273.34069,518.10049 273.30589,518.60489 C 273.29348,518.78506 273.02826,518.94773 272.4044,519.04948 C 269.17537,517.99407 266.58873,516.04183 264.67569,513.26727 C 262.76512,510.45672 261.89057,507.35562 262.05694,503.89196 C 262.42131,500.18857 263.77942,496.80718 266.12876,493.78374 C 268.51672,490.72682 271.45395,488.64893 274.94046,487.55016 L 273.33115,474.58836 C 267.45171,478.81614 262.60708,483.29635 258.7562,488.09853 C 254.90782,492.86465 252.72689,498.18023 252.17727,504.04281 C 252.06802,506.67779 252.43323,509.27315 253.27534,511.79281 C 254.11497,514.34851 255.4776,516.68688 257.35819,518.88001 C 261.15799,523.23272 266.31982,525.72464 272.76897,526.3869 C 274.98178,526.39471 277.35642,526.16043 279.92899,525.68634 L 276.2779,497.09043 z M 278.90281,496.90959 L 282.62483,525.00367 C 288.34024,523.15362 291.45644,518.48179 291.9685,511.0601 C 291.81497,508.55174 291.24685,506.26822 290.15574,504.20192 C 289.10326,502.10217 287.62367,500.40732 285.68093,499.11485 C 283.73819,497.82242 281.5029,497.08899 278.90281,496.90959 z M 274.0849,458.92988 C 275.3263,458.29157 276.78558,457.12532 278.38799,455.46211 C 279.98791,453.83495 281.57407,451.88106 283.10539,449.66996 C 284.67534,447.42534 285.9589,445.12477 286.95599,442.76824 C 287.95062,440.44772 288.50445,438.20538 288.64864,436.11578 C 288.71079,435.21508 288.70069,434.30941 288.57481,433.50434 C 288.51985,432.19736 288.19221,431.16119 287.55333,430.42929 C 286.91192,429.73345 286.07009,429.31337 284.98673,429.23863 C 282.81997,429.08912 280.77797,430.28754 278.86064,432.83399 C 277.3654,435.04759 276.05702,437.70846 275.04877,440.752 C 274.00195,443.8291 273.31874,446.89509 273.03024,450.0245 C 272.96472,453.60373 273.34121,456.56185 274.0849,458.92988 z M 271.66568,460.86253 C 270.44329,454.9139 269.95064,448.90702 270.18765,442.84191 C 270.49224,438.95339 271.14053,435.34202 272.13251,432.00774 C 273.08841,428.67098 274.33702,425.82499 275.88325,423.39774 C 277.39342,420.96799 279.07796,419.16568 280.90083,417.98829 C 282.53319,416.94257 283.69494,416.40737 284.30883,416.4497 C 284.77832,416.48209 285.16314,416.68964 285.50186,417.03882 C 285.84061,417.388 286.2728,417.96079 286.80089,418.72123 C 290.67817,425.10646 292.33781,432.60563 291.74622,441.18022 C 291.46533,445.25134 290.65023,449.17702 289.29346,453.06531 C 287.97527,456.92008 286.16393,460.5598 283.86441,463.91243 C 281.5263,467.29865 278.8594,470.19153 275.82507,472.6247 L 277.7708,487.02147 C 279.37218,486.95097 280.46551,486.88162 281.0794,486.924 C 283.82392,487.11338 286.2398,487.85926 288.43532,489.16916 C 290.63082,490.47904 292.47404,492.16278 293.92625,494.25394 C 295.38095,496.30908 296.45466,498.62752 297.14734,501.20927 C 297.80395,503.78852 298.09193,506.45094 297.90305,509.18905 C 297.60971,513.44034 296.22178,517.25409 293.74172,520.59422 C 291.26166,523.93456 287.72674,526.2607 283.09839,527.60641 C 283.26551,529.39169 283.59456,531.98461 284.12673,535.31537 C 284.6203,538.67987 284.98053,541.34738 285.20745,543.31756 C 285.4343,545.288 285.44952,547.17155 285.32274,549.00898 C 285.12638,551.85507 284.26626,554.3296 282.73988,556.46881 C 281.17738,558.60527 279.18024,560.20488 276.71233,561.26544 C 274.28052,562.32849 271.63818,562.76155 268.82143,562.56707 C 264.84909,562.29299 261.45936,560.93695 258.6498,558.53499 C 255.84273,556.09672 254.46008,552.99696 254.57912,549.16794 C 254.80428,547.48215 255.31088,545.92433 256.13754,544.46099 C 256.96416,542.99762 258.0237,541.8401 259.35226,540.99066 C 260.64721,540.10244 262.16259,539.70037 263.86734,539.70944 C 265.2757,539.80643 266.58449,540.29514 267.79623,541.13878 C 268.96938,542.01619 269.90845,543.13064 270.57481,544.51614 C 271.20507,545.89891 271.50038,547.40355 271.39101,548.98883 C 271.24437,551.11444 270.39786,552.86599 268.85145,554.24342 C 267.30506,555.62089 265.41113,556.25039 263.20828,556.09824 L 262.37772,556.04107 C 263.63697,558.29995 265.87108,559.57613 269.08506,559.79805 C 270.71008,559.91016 272.39612,559.66454 274.10203,559.13048 C 275.84653,558.56319 277.31705,557.75959 278.58829,556.68898 C 279.85953,555.61835 280.73852,554.44824 281.153,553.17355 C 281.86883,551.73893 282.2994,549.70526 282.47588,547.14736 C 282.59519,545.418 282.53395,543.67629 282.32826,541.9245 C 282.12005,540.20872 281.77109,537.90399 281.27884,535.04659 C 280.78411,532.22518 280.42767,530.02852 280.24069,528.53141 C 278.03666,528.92239 275.77782,529.05614 273.43055,528.89416 C 269.49433,528.62234 265.82945,527.57314 262.43842,525.71026 C 259.04739,523.84739 256.13197,521.40183 253.65852,518.33511 C 251.22117,515.27099 249.38649,511.88646 248.15944,508.10945 C 246.96599,504.37098 246.47112,500.49969 246.70843,496.53416 C 247.10642,492.86931 248.03614,489.38595 249.56485,486.16111 C 251.09605,482.90024 252.97595,479.84443 255.23821,477.0322 C 257.50041,474.21993 259.81743,471.66489 262.18682,469.40306 C 264.58985,467.17971 267.72622,464.3192 271.66568,460.86253 z"
       id="path9"
       style="fill:#131516;fill-rule:evenodd;stroke:#131516;stroke-width:0.06121717" />
  </g>
</svg>
